<svg width="163" height="63" viewBox="0 0 163 63" fill="none" preserveAspectRatio="xMinYMid" xmlns="http://www.w3.org/2000/svg">
<path d="M28.9048 9.77804C28.9048 11.9114 27.1969 13.6509 25.1024 13.6509C23.0078 13.6509 21.3 11.9114 21.3 9.77804C21.3 7.64471 23.0078 5.90522 25.1024 5.90522C27.1969 5.90522 28.9048 7.64471 28.9048 9.77804ZM8.92603 21.9545C9.31271 21.7575 9.63495 21.5278 9.92496 21.1996C10.6017 20.5103 10.9883 19.5914 11.0528 18.6396C11.085 18.1801 10.9883 17.7862 10.9561 17.3268C10.9239 16.8673 10.9883 16.375 11.1172 15.9155C11.665 14.0119 13.5663 12.8303 15.4675 13.1586C17.272 13.4539 19.1087 12.4365 19.7532 10.697C20.3655 9.08881 19.8499 7.18522 18.4965 6.13496C17.1753 5.08471 15.2741 5.08471 13.8885 6.06932C13.1473 6.62727 12.5995 7.44778 12.374 8.36676C12.2773 8.82625 12.2451 9.28573 12.3095 9.74522C12.374 10.1719 12.4062 10.5986 12.374 11.058C12.1484 13.0273 10.4728 14.537 8.53934 14.5698C8.12043 14.5698 7.70152 14.4714 7.25039 14.4386C6.79926 14.4386 6.34813 14.5042 5.89699 14.6683C5.02695 14.9637 4.2858 15.6201 3.83467 16.4078C2.99685 17.8847 3.22242 19.8211 4.38248 21.0683C5.54253 22.3811 7.41151 22.7093 8.92603 21.9545ZM14.6941 15.1934C14.3396 15.3903 13.9852 15.6201 13.6951 15.9155C13.0507 16.5719 12.6318 17.4909 12.5995 18.4427C12.5673 18.8693 12.664 19.296 12.6962 19.7227C12.7284 20.1821 12.664 20.6416 12.5351 21.1011C11.9873 22.9391 10.1183 24.1206 8.28155 23.7924C6.50925 23.497 4.73694 24.4816 4.09246 26.2211C3.48021 27.7965 3.99579 29.6345 5.34919 30.6847C6.67036 31.7021 8.50712 31.735 9.86052 30.7503C10.6017 30.1924 11.1495 29.4047 11.3428 28.4857C11.4395 28.0591 11.4717 27.5668 11.4073 27.1401C11.3428 26.7134 11.3106 26.2868 11.3428 25.8601C11.5362 23.9237 13.1796 22.4468 15.0808 22.4468C15.4997 22.4468 15.9186 22.5452 16.3375 22.578C16.7886 22.578 17.2398 22.5124 17.6587 22.3483C18.4965 22.0529 19.2376 21.4293 19.6888 20.6416C20.5266 19.1975 20.301 17.2939 19.1732 16.0468C18.0131 14.7996 16.1764 14.4386 14.6941 15.1934Z" fill="#BDC4D1"/>
<g filter="url(#filter0_d_124_307)">
<path d="M26.8068 20.5076H31.7748C33.5028 20.5076 34.9908 20.8676 36.2628 21.5636C37.5348 22.2596 38.5188 23.2436 39.1908 24.4916C39.8628 25.7636 40.2228 27.2276 40.2228 28.9076C40.2228 30.5876 39.8628 32.0516 39.1908 33.3236C38.5188 34.5956 37.5348 35.5796 36.2628 36.2756C34.9908 36.9716 33.5028 37.3076 31.7748 37.3076H26.8068V20.5076ZM31.7748 35.3876C33.7668 35.3876 35.3268 34.8116 36.4308 33.6356C37.5348 32.4836 38.0868 30.8996 38.0868 28.9076C38.0868 26.9156 37.5348 25.3316 36.4308 24.1796C35.3268 23.0276 33.7908 22.4276 31.7748 22.4276H28.8948V35.3876H31.7748ZM42.6215 27.8996C43.1015 26.9636 43.7975 26.2436 44.6855 25.7156C45.5495 25.1876 46.5575 24.9236 47.7095 24.9236C48.8135 24.9236 49.8215 25.1636 50.6855 25.6196C51.5495 26.0996 52.2215 26.7716 52.7255 27.6356C53.2055 28.5236 53.4695 29.5556 53.5175 30.7316C53.5175 30.9236 53.4935 31.1876 53.4695 31.5716H43.9655V31.7396C43.9895 32.9396 44.3495 33.8996 45.0695 34.6196C45.7655 35.3396 46.6775 35.6996 47.8295 35.6996C48.6935 35.6996 49.4375 35.4836 50.0615 35.0516C50.6855 34.6196 51.0935 33.9956 51.3095 33.2036H53.3015C53.0615 34.4516 52.4615 35.4836 51.5015 36.2756C50.5415 37.0676 49.3655 37.4516 47.9735 37.4516C46.7495 37.4516 45.6935 37.2116 44.7815 36.6836C43.8695 36.1556 43.1495 35.4356 42.6455 34.4756C42.1415 33.5156 41.9015 32.4356 41.9015 31.1876C41.9015 29.9396 42.1415 28.8596 42.6215 27.8996ZM51.4775 29.9396C51.3815 28.9076 50.9735 28.0916 50.3015 27.5156C49.6295 26.9396 48.7655 26.6516 47.7335 26.6516C46.7975 26.6516 45.9815 26.9636 45.2855 27.5636C44.5655 28.1876 44.1815 28.9796 44.0855 29.9396H51.4775ZM53.8305 25.0676H55.9425L59.6385 35.0756L63.3105 25.0676H65.3745L60.7905 37.3076H58.4145L53.8305 25.0676ZM81.2675 33.2996C80.5955 34.5956 79.6355 35.6276 78.4355 36.3476C77.2115 37.0916 75.8195 37.4516 74.2835 37.4516C72.7235 37.4516 71.3315 37.0916 70.1315 36.3476C68.9075 35.6276 67.9475 34.5956 67.2755 33.2996C66.6035 32.0036 66.2675 30.5396 66.2675 28.9076C66.2675 27.2756 66.6035 25.8116 67.2755 24.5156C67.9475 23.2196 68.9075 22.2116 70.1315 21.4676C71.3315 20.7476 72.7235 20.3636 74.2835 20.3636C75.8195 20.3636 77.2115 20.7476 78.4355 21.4676C79.6355 22.2116 80.5955 23.2196 81.2675 24.5156C81.9395 25.8116 82.2995 27.2756 82.2995 28.9076C82.2995 30.5396 81.9395 32.0036 81.2675 33.2996ZM69.1475 32.3396C69.6275 33.3476 70.3235 34.1156 71.2115 34.6916C72.0995 35.2676 73.1315 35.5316 74.2835 35.5316C75.4355 35.5316 76.4435 35.2676 77.3315 34.6916C78.2195 34.1156 78.9155 33.3476 79.4195 32.3396C79.8995 31.3316 80.1635 30.2036 80.1635 28.9076C80.1635 27.6356 79.8995 26.5076 79.4195 25.4996C78.9155 24.4916 78.2195 23.7236 77.3315 23.1476C76.4435 22.5716 75.4355 22.2836 74.2835 22.2836C73.1315 22.2836 72.0995 22.5716 71.2115 23.1476C70.3235 23.7236 69.6275 24.4916 69.1475 25.4996C68.6435 26.5076 68.4035 27.6356 68.4035 28.9076C68.4035 30.2036 68.6435 31.3316 69.1475 32.3396ZM93.6024 25.6676C94.4904 26.1716 95.1864 26.8916 95.6904 27.8276C96.1944 28.7876 96.4584 29.8916 96.4584 31.1876C96.4584 32.4356 96.1944 33.5156 95.6904 34.4516C95.1864 35.4116 94.4904 36.1316 93.6024 36.6596C92.6904 37.1876 91.6824 37.4516 90.5784 37.4516C89.5704 37.4516 88.7304 37.2836 88.0344 36.9236C87.3144 36.5636 86.7624 36.0596 86.3784 35.4356V42.1076H84.4104V25.0676H86.1144L86.3784 27.0356C87.3864 25.6436 88.8024 24.9236 90.5784 24.9236C91.7064 24.9236 92.7144 25.1876 93.6024 25.6676ZM93.3144 34.4516C94.0584 33.6116 94.4424 32.5316 94.4424 31.1876C94.4424 29.8676 94.0584 28.7876 93.3144 27.9476C92.5704 27.1076 91.5864 26.6756 90.3864 26.6756C89.5944 26.6756 88.8984 26.8676 88.2744 27.2516C87.6504 27.6356 87.1944 28.1636 86.8584 28.8356C86.5224 29.5076 86.3544 30.2756 86.3544 31.1396C86.3544 32.0276 86.5224 32.8196 86.8584 33.5156C87.1944 34.2116 87.6504 34.7396 88.2744 35.1236C88.8984 35.5076 89.5944 35.6996 90.3864 35.6996C91.5864 35.6996 92.5704 35.2916 93.3144 34.4516ZM99.1426 26.8676H96.9346V25.0676H99.1426V21.6356H101.111V25.0676H104.207V26.8676H101.111V34.0916C101.111 34.6196 101.207 34.9796 101.399 35.1956C101.591 35.4116 101.951 35.5076 102.455 35.5076H104.591V37.3076H102.335C101.183 37.3076 100.343 37.0676 99.8626 36.5396C99.3826 36.0356 99.1426 35.2196 99.1426 34.1156V26.8676ZM107.647 20.6996C107.887 20.9396 108.007 21.2516 108.007 21.6116C108.007 21.9956 107.887 22.2836 107.647 22.5236C107.407 22.7636 107.095 22.8836 106.735 22.8836C106.351 22.8836 106.063 22.7636 105.823 22.5236C105.583 22.2836 105.463 21.9956 105.463 21.6116C105.463 21.2516 105.583 20.9396 105.823 20.6996C106.063 20.4596 106.351 20.3396 106.735 20.3396C107.095 20.3396 107.407 20.4596 107.647 20.6996ZM105.751 25.0676H107.719V37.3076H105.751V25.0676ZM127.167 26.2196C128.031 27.0836 128.463 28.4276 128.463 30.2516V37.3076H126.495V30.3716C126.495 29.1956 126.231 28.2836 125.727 27.6596C125.223 27.0356 124.503 26.7236 123.591 26.7236C122.559 26.7236 121.743 27.0836 121.167 27.8036C120.591 28.5236 120.303 29.5076 120.303 30.7556V37.3076H118.335V30.3716C118.335 29.1956 118.071 28.2836 117.567 27.6596C117.039 27.0356 116.319 26.7236 115.383 26.7236C114.375 26.7236 113.583 27.1076 113.007 27.8756C112.431 28.6436 112.143 29.6276 112.143 30.8516V37.3076H110.175V25.0676H111.879L112.143 26.7476C113.007 25.5476 114.207 24.9236 115.719 24.9236C116.583 24.9236 117.375 25.1396 118.047 25.5236C118.719 25.9076 119.247 26.4836 119.583 27.2516C120.447 25.7156 121.863 24.9236 123.831 24.9236C125.199 24.9236 126.303 25.3556 127.167 26.2196ZM142.195 35.5076V37.3076H141.115C140.323 37.3076 139.771 37.1636 139.435 36.8276C139.099 36.5156 138.907 36.0356 138.907 35.4116C137.947 36.7796 136.579 37.4516 134.803 37.4516C133.435 37.4516 132.331 37.1396 131.515 36.4916C130.699 35.8676 130.291 34.9796 130.291 33.8756C130.291 32.6516 130.699 31.7156 131.539 31.0436C132.379 30.3956 133.603 30.0596 135.211 30.0596H138.811V29.2196C138.811 28.4276 138.523 27.8036 137.995 27.3476C137.467 26.9156 136.723 26.6756 135.763 26.6756C134.899 26.6756 134.203 26.8676 133.651 27.2516C133.099 27.6356 132.763 28.1156 132.643 28.7396H130.675C130.819 27.5396 131.347 26.6036 132.259 25.9316C133.171 25.2596 134.371 24.9236 135.859 24.9236C137.419 24.9236 138.619 25.3076 139.483 26.0756C140.347 26.8436 140.779 27.9236 140.779 29.3396V34.6196C140.779 35.2196 141.043 35.5076 141.595 35.5076H142.195ZM138.811 31.7156H135.019C133.195 31.7156 132.283 32.4116 132.283 33.7556C132.283 34.3796 132.523 34.8596 133.003 35.2196C133.483 35.6036 134.131 35.7716 134.947 35.7716C136.147 35.7716 137.083 35.4596 137.779 34.8356C138.451 34.2116 138.811 33.3716 138.811 32.3156V31.7156Z" fill="#BDC4D1"/>
</g>
<defs>
<filter id="filter0_d_124_307" x="6.80683" y="0.339844" width="155.388" height="61.7676" filterUnits="userSpaceOnUse" color-interpolation-filters="sRGB">
<feFlood flood-opacity="0" result="BackgroundImageFix"/>
<feColorMatrix in="SourceAlpha" type="matrix" values="0 0 0 0 0 0 0 0 0 0 0 0 0 0 0 0 0 0 127 0" result="hardAlpha"/>
<feOffset/>
<feGaussianBlur stdDeviation="10"/>
<feComposite in2="hardAlpha" operator="out"/>
<feColorMatrix type="matrix" values="0 0 0 0 1 0 0 0 0 1 0 0 0 0 1 0 0 0 0.2 0"/>
<feBlend mode="normal" in2="BackgroundImageFix" result="effect1_dropShadow_124_307"/>
<feBlend mode="normal" in="SourceGraphic" in2="effect1_dropShadow_124_307" result="shape"/>
</filter>
</defs>
</svg>
